<svg width="31" height="31" viewBox="0 0 31 31" fill="none" xmlns="http://www.w3.org/2000/svg">
<path d="M15.5 31C6.92941 31 0 24.0706 0 15.5C0 6.92941 6.92941 0 15.5 0C24.0706 0 31 6.92941 31 15.5C31 24.0706 24.0706 31 15.5 31ZM15.5 1.82353C7.93235 1.82353 1.82353 7.93235 1.82353 15.5C1.82353 23.0676 7.93235 29.1765 15.5 29.1765C23.0676 29.1765 29.1765 23.0676 29.1765 15.5C29.1765 7.93235 23.0676 1.82353 15.5 1.82353Z" fill="#FDFAFF"/>
<path d="M23.0676 17.05L15.5 9.48238L7.93235 17.05L6.65588 15.7736L15.5 6.92944L24.3441 15.7736L23.0676 17.05Z" fill="#FDFAFF"/>
<path d="M14.5882 8.20581H16.4117V23.7058H14.5882V8.20581Z" fill="#FDFAFF"/>
</svg>
