<svg width="26" height="29" viewBox="0 0 26 29" fill="none" xmlns="http://www.w3.org/2000/svg">
<path d="M13.5723 16.6238C13.5723 14.6869 14.9723 12.7331 17.1439 12.7331C19.3155 12.7331 20.7156 14.6869 20.7156 16.6238C20.7156 18.5606 19.3155 20.5144 17.1439 20.5144C14.9723 20.5144 13.5723 18.5606 13.5723 16.6238ZM5.00031 16.6238C5.00031 14.6869 6.40039 12.7331 8.57195 12.7331C10.7435 12.7331 12.1436 14.6869 12.1436 16.6238C12.1436 18.5606 10.7435 20.5144 8.57195 20.5144C6.40039 20.5144 5.00031 18.5606 5.00031 16.6238ZM11.8536 24.0514C11.1964 24.0514 10.7149 23.4643 10.7149 22.8319C10.7168 22.6621 10.7454 22.4994 10.8007 22.3438C10.8262 22.2676 10.8582 22.1938 10.8964 22.123C11.415 21.1242 12.8579 20.5144 12.8579 20.5144C12.8579 20.5144 15.0009 21.4765 15.0009 22.8319C15.0009 23.4643 14.5209 24.0514 13.8623 24.0514C13.4294 24.0514 13.1008 23.8137 12.8908 23.4699C12.8873 23.4644 12.8825 23.4598 12.8768 23.4566C12.871 23.4534 12.8645 23.4517 12.8579 23.4517C12.8513 23.4517 12.8449 23.4534 12.8391 23.4566C12.8334 23.4598 12.8285 23.4644 12.8251 23.4699C12.6151 23.8137 12.2865 24.0514 11.8536 24.0514Z" fill="#1A1A1A"/>
<path fill-rule="evenodd" clip-rule="evenodd" d="M1.42866 19.807H1.45723V20.7889L1.42866 20.7931V21.6831C1.42866 22.5814 2.31728 23.2025 3.15019 23.5591C3.56593 23.7373 3.92881 24.0358 4.20026 24.4221C4.47027 24.8097 4.63743 25.2695 4.68457 25.752C4.82601 27.229 5.0946 28.2986 6.59183 28.2958L7.96335 28.2944V28.2845H17.7554V28.2944L19.124 28.2958C20.6227 28.2986 20.8927 27.2276 21.0341 25.752C21.0813 25.2695 21.2484 24.8097 21.5199 24.4221C21.7814 24.0432 22.1446 23.7443 22.5685 23.5591C23.4014 23.2025 24.2901 22.5814 24.2901 21.6831V20.7931L24.2743 20.7903V19.807H24.2872C24.2872 18.3413 24.2901 17.7414 24.3301 17.3892C24.3515 17.1968 24.3572 17.1812 24.5486 16.8091L24.5529 16.7992L24.5572 16.7893C25.3185 15.2565 25.7149 13.5712 25.7159 11.863C25.7159 5.20642 19.8498 0 12.8579 0C5.86607 0 0 5.20642 0 11.863C0 13.6188 0.414311 15.2868 1.15721 16.7865L1.1615 16.7964L1.16579 16.8063C1.35865 17.1812 1.36294 17.1968 1.3858 17.3892C1.4258 17.7429 1.42866 18.3413 1.42866 19.807ZM12.8579 2.82958C7.22473 2.82958 2.85732 6.97774 2.85732 11.863C2.85732 13.1689 3.16305 14.4096 3.71737 15.5315L3.72023 15.5386C3.9431 15.9701 4.14311 16.3592 4.22454 17.0694L4.2274 17.0991C4.28455 17.251 4.31312 17.4127 4.31312 17.5844V20.7974C5.62749 21.0464 6.60898 21.4652 7.14615 22.2334C7.68476 23.003 7.96049 24.1618 7.96335 25.4535H17.7554C17.7597 24.1618 18.034 23.003 18.5726 22.2334C19.1112 21.4638 20.0969 21.045 21.4156 20.7946V17.583C21.4156 17.439 21.4377 17.2959 21.4813 17.1586L21.4913 17.0694C21.5727 16.3592 21.7728 15.9701 21.9942 15.5386L21.9971 15.533C22.5629 14.3907 22.8576 13.1354 22.8585 11.863C22.8585 6.97774 18.4911 2.82958 12.8579 2.82958Z" fill="#1A1A1A"/>
</svg>
