<svg width="32" height="33" viewBox="0 0 32 33" fill="none" xmlns="http://www.w3.org/2000/svg">
<path d="M22.2886 31.5605V27.1451C22.3463 26.4115 22.2472 25.674 21.9979 24.9817C21.7485 24.2893 21.3547 23.658 20.8425 23.1297C25.6732 22.5912 30.7502 20.7605 30.7502 12.3605C30.7498 10.2125 29.9235 8.14691 28.4425 6.59122C29.1438 4.712 29.0942 2.63483 28.304 0.79122C28.304 0.79122 26.4886 0.252759 22.2886 3.06814C18.7623 2.11396 15.0457 2.11396 11.5194 3.06814C7.3194 0.252759 5.50401 0.79122 5.50401 0.79122C4.71382 2.63483 4.66423 4.712 5.36555 6.59122C3.87344 8.15845 3.04635 10.2427 3.05786 12.4066C3.05786 20.7451 8.13478 22.5758 12.9655 23.1758C12.4594 23.6989 12.069 24.3226 11.8199 25.0065C11.5707 25.6903 11.4683 26.419 11.5194 27.1451V31.5605" stroke="#FDFAFF" stroke-width="1.5" stroke-linecap="round" stroke-linejoin="round"/>
<path d="M11.5194 28.4835C6.90397 29.9805 3.05781 28.4835 0.750122 23.8682" stroke="#FDFAFF" stroke-width="1.5" stroke-linecap="round" stroke-linejoin="round"/>
</svg>
