<svg width="31" height="31" viewBox="0 0 31 31" fill="none" xmlns="http://www.w3.org/2000/svg">
<path d="M26.6139 0H4.32606C3.1797 0.0031964 2.08121 0.460003 1.27061 1.27061C0.460003 2.08121 0.0031964 3.1797 0 4.32606V26.6139C0.0031964 27.7603 0.460003 28.8588 1.27061 29.6694C2.08121 30.48 3.1797 30.9368 4.32606 30.94H26.6139C27.7613 30.94 28.8616 30.4842 29.6729 29.6729C30.4842 28.8616 30.94 27.7613 30.94 26.6139V4.32606C30.94 3.17872 30.4842 2.07837 29.6729 1.26707C28.8616 0.45578 27.7613 0 26.6139 0ZM29.2096 26.6139C29.205 27.3009 28.9301 27.9585 28.4443 28.4443C27.9585 28.9301 27.3009 29.205 26.6139 29.2096H4.32606C3.63906 29.205 2.98148 28.9301 2.49568 28.4443C2.00988 27.9585 1.73496 27.3009 1.73043 26.6139V4.32606C1.73496 3.63906 2.00988 2.98148 2.49568 2.49568C2.98148 2.00988 3.63906 1.73496 4.32606 1.73043H26.6139C27.3009 1.73496 27.9585 2.00988 28.4443 2.49568C28.9301 2.98148 29.205 3.63906 29.2096 4.32606V26.6139Z" fill="#FDFAFF"/>
<path d="M5.7381 13.3034C5.7381 12.8445 5.92041 12.4043 6.24493 12.0798C6.56945 11.7553 7.00959 11.573 7.46852 11.573C7.92746 11.573 8.3676 11.7553 8.69212 12.0798C9.01664 12.4043 9.19895 12.8445 9.19895 13.3034V24.5512C9.19895 25.0101 9.01664 25.4503 8.69212 25.7748C8.3676 26.0993 7.92746 26.2816 7.46852 26.2816C7.00959 26.2816 6.56945 26.0993 6.24493 25.7748C5.92041 25.4503 5.7381 25.0101 5.7381 24.5512V13.3034Z" fill="#FDFAFF"/>
<path d="M7.46852 8.10514C8.42421 8.10514 9.19895 7.3304 9.19895 6.37471C9.19895 5.41902 8.42421 4.64429 7.46852 4.64429C6.51284 4.64429 5.7381 5.41902 5.7381 6.37471C5.7381 7.3304 6.51284 8.10514 7.46852 8.10514Z" fill="#FDFAFF"/>
<path d="M25.195 17.8407V24.5547C25.195 25.0137 25.0127 25.4538 24.6882 25.7783C24.3636 26.1028 23.9235 26.2851 23.4646 26.2851C23.0056 26.2851 22.5655 26.1028 22.241 25.7783C21.9165 25.4538 21.7341 25.0137 21.7341 24.5547V17.8407C21.7341 17.0995 21.4397 16.3887 20.9156 15.8646C20.3915 15.3405 19.6807 15.046 18.9395 15.046C18.1983 15.046 17.4875 15.3405 16.9634 15.8646C16.4393 16.3887 16.1449 17.0995 16.1449 17.8407V24.5547C16.1449 25.0137 15.9626 25.4538 15.638 25.7783C15.3135 26.1028 14.8734 26.2851 14.4144 26.2851C13.9555 26.2851 13.5154 26.1028 13.1908 25.7783C12.8663 25.4538 12.684 25.0137 12.684 24.5547V13.307C12.6912 12.8503 12.8758 12.4142 13.1987 12.0913C13.5217 11.7683 13.9577 11.5837 14.4144 11.5765C14.7075 11.5685 14.9973 11.6399 15.2532 11.783C15.5091 11.9262 15.7215 12.1359 15.868 12.3898C16.8195 11.8506 17.8959 11.5705 18.9896 11.5778C20.0833 11.585 21.1559 11.8793 22.1001 12.4311C23.0444 12.983 23.8272 13.7731 24.3704 14.7224C24.9135 15.6717 25.1978 16.747 25.195 17.8407Z" fill="#FDFAFF"/>
</svg>
